<?xml version="1.0" standalone="no"?>
<!DOCTYPE svg PUBLIC "-//W3C//DTD SVG 1.1//EN" "http://www.w3.org/Graphics/SVG/1.1/DTD/svg11.dtd" >
<svg xmlns="http://www.w3.org/2000/svg" xmlns:xlink="http://www.w3.org/1999/xlink" version="1.1">
<metadata>
Created by FontForge 20190801 at Wed Mar 20 20:43:18 2019
 By www-data

Created by iconfont

</metadata>
<defs>
<font id="yticon" horiz-adv-x="1024" >
  <font-face 
    font-family="yticon"
    font-weight="400"
    font-stretch="normal"
    units-per-em="1024"
    panose-1="2 0 5 3 0 0 0 0 0 0"
    ascent="896"
    descent="-128"
    bbox="2 -124 1026.16 894"
    underline-thickness="0"
    underline-position="10"
    unicode-range="U+E600-E7CE"
  />
<missing-glyph 
 />
    <glyph glyph-name=".notdef" 
 />
    <glyph glyph-name=".null" horiz-adv-x="0" 
 />
    <glyph glyph-name="nonmarkingreturn" horiz-adv-x="341" 
 />
    <glyph glyph-name="jiantour-copy" unicode="&#xe600;" horiz-adv-x="1000" 
d="M146 289l312 -312q20 -18 45 -18t44 18l312 312q19 20 19 44.5t-19 43.5t-44 19t-44 -18l-206 -206v599q-1 27 -18.5 44.5t-44 17.5t-44 -17.5t-18.5 -44.5v-599l-206 206q-19 18 -44 18t-43.5 -19t-18.5 -43.5t18 -44.5z" />
    <glyph glyph-name="arrow-fine-up" unicode="&#xe601;" 
d="M877 493l-320 320q-19 19 -45 19t-45 -19l-320 -320q-19 -19 -19 -45t19 -45t45 -19t45 19l211 211v-614q1 -27 19 -45t45 -18t45 18t19 45v614l211 -211q19 -19 45 -19t45 19t19 45t-19 45z" />
    <glyph glyph-name="arrow-left-bottom" unicode="&#xe602;" 
d="M176 565v-453q1 -27 19 -45t45 -19h453q27 1 45 19t18 45.5t-18 45.5t-45 18h-298l434 434q19 20 19 45.5t-19.5 45t-45 19.5t-45.5 -19l-434 -434v298q0 27 -18 45t-45.5 18t-45.5 -18t-19 -45z" />
    <glyph glyph-name="arrow-right-bottom" unicode="&#xe603;" 
d="M331 48h453q27 1 45 19t19 45v453q-1 27 -19 45t-45.5 18t-45.5 -18t-18 -45v-298l-434 434q-20 19 -45.5 19t-45 -19.5t-19.5 -45t19 -45.5l434 -434h-298q-27 0 -45 -18t-18 -45.5t18 -45.5t45 -19z" />
    <glyph glyph-name="arrow-left-top" unicode="&#xe604;" 
d="M693 720h-453q-27 -1 -45 -19t-19 -45v-453q1 -27 19 -45t45.5 -18t45.5 18t18 45v298l434 -434q20 -19 45.5 -19t45 19.5t19.5 45t-19 45.5l-434 434h298q27 0 45 18t18 45.5t-18 45.5t-45 19z" />
    <glyph glyph-name="zuojiantou-up" unicode="&#xe605;" horiz-adv-x="1000" 
d="M387 789l-344 -343q-20 -21 -20 -48.5t20 -48.5l344 -344q21 -20 48.5 -20t48 20.5t20.5 48t-20 48.5l-226 226h658q30 1 49 20.5t19 48.5t-19 48.5t-49 20.5h-658l226 226q20 21 20 48.5t-20.5 48t-48 20.5t-48.5 -20z" />
    <glyph glyph-name="you" unicode="&#xe606;" 
d="M694 407l-384 352q-9 9 -22 9t-22.5 -9.5t-9.5 -22.5t9 -22l361 -329l-361 -330q-9 -9 -9 -22t9 -22.5t22 -9.5t23 9l384 351q9 10 9.5 23t-9.5 23z" />
    <glyph glyph-name="forward" unicode="&#xe607;" 
d="M621 19l320 320q19 19 19 45t-19 45l-320 320q-19 19 -45 19t-45 -19t-19 -45t19 -45l211 -211h-614q-27 -1 -45 -19t-18 -45t18 -45t45 -19h614l-211 -211q-19 -19 -19 -45t19 -45t45 -19t45 19z" />
    <glyph glyph-name="xiatubiao--copy" unicode="&#xe608;" horiz-adv-x="1033" 
d="M526 826q20 0 38.5 -8.5t32.5 -23.5l350 -368q14 -15 17 -23.5t2 -10.5l-1 -2q-1 -4 -13 -8t-35 -5h-70v-367q-1 -22 -17 -37q-20 -17 -53 -17h-83l-269 -2q-75 0 -150 2h-1q-33 0 -53 17q-16 14 -16 37v367h-74q-22 1 -33 5t-12.5 8t2.5 13.5t16 22.5l349 368
q14 16 33 24t40 8zM526 886q-34 0 -64 -13t-53 -38l-348 -367q-32 -36 -35 -62t4 -40q5 -15 27.5 -31.5t73.5 -17.5h13v-307q1 -51 36.5 -82.5t93.5 -32.5q63 -1 151 -1l186 1h166q57 1 93 33t37 82v307h10q53 1 76 17.5t28 32.5q7 13 4.5 39t-35.5 62l-349 368
q-23 24 -52.5 37t-62.5 13zM653 374q-26 25 -59.5 25t-59.5 -25l-8 -8l-9 8q-26 25 -59.5 25t-59 -25.5t-25.5 -59t25 -59.5l8 -9l120 -101l119 101l8 9q25 26 25 59.5t-25 59.5z" />
    <glyph glyph-name="gouwuche" unicode="&#xe609;" 
d="M347 113q20 0 37 -7.5t30.5 -20t20.5 -30t7 -37t-7 -37t-20.5 -30t-30.5 -20.5t-37 -8t-37 8t-30.5 20.5t-20.5 30t-7 37t7 37t20.5 30t30.5 20t37 7.5zM773 111q20 0 37.5 -7.5t30.5 -20t20.5 -30t7.5 -37t-7.5 -37t-20.5 -30t-30.5 -20.5t-37 -8t-37 8t-30.5 20.5
t-20.5 30t-7.5 37t7.5 37t20.5 30t30.5 20t36.5 7.5zM945 692q29 0 45 -7.5t22.5 -19t6 -24t-3.5 -21.5l-13 -38l-46 -131q-12 -34 -18 -54q-13 -41 -33.5 -56.5t-50.5 -15.5h-538l16 -93h516q49 0 49 -42q0 -20 -9.5 -35t-38.5 -15h-537q-20 0 -34 9.5t-23 24t-15 32
t-9 33.5l-48 255q-19 103 -44 230h-77q-15 0 -25 7.5t-17 18.5t-9.5 23t-2.5 23q0 20 14 33.5t37 13.5h104q20 0 32.5 -6.5t19.5 -15.5t10 -19l5 -18q2 -8 4 -23l5 -30l6 -39h700z" />
    <glyph glyph-name="jia2" unicode="&#xe60a;" 
d="M224 432h576q20 -1 33.5 -14.5t13.5 -33.5t-13.5 -33.5t-33.5 -14.5h-576q-20 1 -33.5 14.5t-13.5 33.5t13.5 33.5t33.5 14.5zM560 672v-576q-1 -20 -14.5 -33.5t-33.5 -13.5t-33.5 13.5t-14.5 33.5v576q1 20 14.5 33.5t33.5 13.5t33.5 -13.5t14.5 -33.5z" />
    <glyph glyph-name="-jianhao" unicode="&#xe60b;" 
d="M187 441h650q24 0 40 -16.5t16 -40.5t-16 -40.5t-40 -16.5h-650q-25 0 -41 16.5t-16 40.5t16 40.5t41 16.5z" />
    <glyph glyph-name="icon-test" unicode="&#xe60c;" 
d="M512 -64q-18 0 -33 12q-68 54 -196 212t-142 301q4 157 108.5 262t262.5 109q158 -4 262.5 -109t108.5 -262q-14 -143 -142 -301t-196 -212q-15 -12 -33 -12zM512 776q-134 -3 -223 -92t-92 -223q12 -118 127.5 -263t187.5 -205q72 60 187.5 205t127.5 263
q-3 134 -92 223t-223 92zM515 644q-63 -2 -105 -44t-44 -105q2 -63 44 -105t105 -44q63 2 105 44t44 105q-2 63 -44 105t-105 44zM515 392q-44 1 -73 30t-30 73q1 44 30 73t73 30q44 -1 73 -30t30 -73q-1 -44 -30 -73t-73 -30z" />
    <glyph glyph-name="saomiao" unicode="&#xe60d;" 
d="M881 414h-780q-13 0 -21.5 -8.5t-8.5 -21.5t8.5 -21.5t21.5 -8.5h780q12 0 20.5 8.5t8.5 21.5t-8.5 21.5t-20.5 8.5zM851 264h-1q-12 0 -20.5 -8.5t-8.5 -21.5v-132q-1 -21 -14.5 -34.5t-34.5 -14.5h-132q-13 0 -21.5 -8.5t-8.5 -21t8.5 -21t21.5 -8.5h164q32 1 54 22.5
t23 54.5v163q-1 13 -9 21.5t-21 8.5zM133 504q12 0 21 9t9 21v129q0 20 14 34t35 14h128q12 0 21 9t9 21v1q0 12 -9 21t-21 9h-160q-33 -1 -54.5 -22.5t-22.5 -54.5v-161q0 -12 8.5 -21t21.5 -9zM640 711h132q21 0 34.5 -14t14.5 -34v-129q0 -13 8.5 -21.5t21 -8.5t21 8.5
t9.5 21.5v161q-1 33 -23 54.5t-54 22.5h-164q-12 0 -21 -9t-9 -21v-1q0 -13 8.5 -21t21.5 -9zM340 53h-129q-20 1 -34 14.5t-14 34.5v132q-1 13 -9 21.5t-21 8.5h-1q-12 0 -20.5 -8.5t-8.5 -21.5v-163q0 -33 22 -54.5t54 -22.5h161q13 0 21.5 8.5t8.5 21t-8.5 21t-21.5 8.5z
" />
    <glyph glyph-name="shezhi" unicode="&#xe60f;" 
d="M879 350q1 17 1 34t-1 34l85 67q14 12 17.5 29t-5.5 33l-91 160q-10 15 -26 21t-34 0l-101 -41q-27 20 -57 34l-15 108q-3 18 -16.5 29.5t-31.5 11.5h-183q-18 0 -31 -11.5t-16 -29.5l-16 -108q-29 -14 -57 -34l-101 41q-16 6 -33 0t-26 -21l-91 -160q-9 -16 -6 -33
t17 -29l86 -67q-2 -17 -2 -34t2 -34l-86 -67q-14 -12 -17 -29t6 -33l91 -160q9 -15 25.5 -21t34.5 0l100 41q28 -20 58 -34l15 -108q3 -19 16 -30t31 -11h183q18 0 31.5 11.5t16.5 29.5l15 108q30 14 57 34l101 -41q8 -3 18 -3q13 0 24 6.5t18 17.5l91 160q8 16 5 33t-17 29
zM844 88l-114 46q-13 5 -25 -4q-34 -26 -71 -42q-13 -6 -16 -20l-17 -119l-177 -3l-17 122q-2 14 -15 20q-38 16 -72 42q-7 5 -15 6q-5 0 -10 -2l-110 -48l-92 157l97 76q11 9 9 23q-3 21 -3 42t3 42q2 14 -9 23l-96 73l88 158l113 -46q14 -5 25 4q34 26 72 42q13 6 15 20
l14 119l180 3l17 -122q3 -14 16 -20q37 -16 71 -42q12 -9 25 -4l110 47l92 -156l-96 -76q-11 -9 -10 -23q3 -21 3 -42t-3 -42q-1 -14 10 -23l95 -73zM513 577q-81 -2 -135.5 -56.5t-56.5 -136.5q2 -82 56.5 -136.5t135.5 -56.5q81 2 135 56.5t56 136.5q-2 82 -56 136.5
t-135 56.5zM513 242q-60 2 -99.5 42t-40.5 100q1 60 40.5 100t99.5 42q59 -2 98.5 -42t41.5 -100q-2 -60 -41.5 -100t-98.5 -42z" />
    <glyph glyph-name="zuoshang" unicode="&#xe613;" 
d="M848 203v453q-1 27 -19 45t-45 19h-453q-27 -1 -45 -19t-18 -45.5t18 -45.5t45 -18h298l-434 -434q-19 -20 -19 -45.5t19.5 -45t45 -19.5t45.5 19l434 434v-298q0 -27 18 -45t45.5 -18t45.5 18t19 45z" />
    <glyph glyph-name="xiaoxi-yuanshijituantubiao" unicode="&#xe617;" 
d="M514 416q-18 -1 -29.5 -12.5t-11.5 -29t11.5 -29.5t29.5 -12t29.5 12t11.5 29.5t-11.5 29t-29.5 12.5zM312 416q-17 -1 -29 -12.5t-12 -29t12 -29.5t29.5 -12t29 12t11.5 29.5t-11.5 29t-29.5 12.5zM675 374q0 -17 12 -29t29.5 -12t29 12t11.5 29.5t-11.5 29t-29 11.5
t-29.5 -11.5t-12 -29.5zM898 570v1q0 20 -9.5 69.5t-32.5 75.5q-8 7 -15 9t-13 2q-19 -2 -45.5 -19t-56.5 -42l-14 -11h-371h-28l-6 4q-27 27 -52.5 46.5t-47.5 21.5q-11 1 -27 -11q-21 -23 -30.5 -67t-11.5 -70q-2 -1 -3 -4q-24 -30 -37.5 -71.5t-13.5 -84.5v-86
q1 -61 31.5 -112t83.5 -83v-99q0 -7 7 -7q3 0 5 2l70 70q33 -8 66 -8h341q110 3 182 69t74 168v86q0 41 -12.5 81t-33.5 70zM901 333q-2 -84 -61.5 -138t-151.5 -56h-341q-93 2 -155.5 57t-64.5 137v86q0 35 11.5 70t29.5 60l4 5q6 7 7.5 14t1.5 15q2 20 6 40q3 15 7.5 32
t13.5 29q17 -6 69 -56q12 -11 21.5 -14t21.5 -2h386q10 -1 20 2.5t27 17.5q13 10 37 27.5t38 22.5q10 -12 18 -47t9 -62q-1 -13 7 -24q18 -25 28.5 -61t11.5 -70z" />
    <glyph glyph-name="xiaoxi" unicode="&#xe618;" 
d="M991 444q-5 170 -140.5 283.5t-338.5 117.5q-203 -4 -338.5 -117.5t-140.5 -283.5q1 -95 48.5 -177t136.5 -140q12 -7 24.5 -4.5t19.5 14t4.5 24t-13.5 20.5q-75 49 -115 117t-41 146q5 143 122 238t293 99q176 -4 293 -99t122 -238q-5 -143 -122 -238.5t-293 -98.5
q-17 -1 -27 -14l-4 -6q-24 -32 -56 -52t-62 -31q10 46 5.5 74t-6.5 31q-5 12 -16.5 17.5t-24.5 1t-18 -16.5t-1 -25q3 -1 4 -32.5t-26 -82.5q-9 -17 2 -34q10 -14 26 -14h5q10 -1 81.5 24t133.5 96q197 9 327.5 121.5t135.5 279.5zM230 441q1 -26 18 -43t43 -17t43.5 17
t17.5 43t-17.5 43.5t-43.5 17.5t-43 -17.5t-18 -43.5zM445 441q0 -26 17.5 -43t43.5 -17t43 17t17 43t-17 43.5t-43 17.5t-43.5 -17.5t-17.5 -43.5zM659 441q1 -26 18 -43t43.5 -17t43.5 17t17 43t-17 43.5t-43.5 17.5t-43.5 -17.5t-18 -43.5z" />
    <glyph glyph-name="fork" unicode="&#xe61b;" 
d="M561 387l297 295q11 11 11 25.5t-11 25t-25 11t-25 -10.5l-297 -295l-295 295q-11 10 -25 10t-25 -10.5t-11 -25t11 -25.5l294 -295l-297 -295q-10 -11 -10.5 -25.5t10.5 -25t25.5 -10.5t25.5 10l296 295l297 -297q11 -11 26 -11t25.5 10.5t10.5 25t-11 25.5zM561 387z
" />
    <glyph glyph-name="jia1" unicode="&#xe61c;" 
d="M127 443h326v326q0 25 17 42t42 17t41.5 -17t17.5 -42v-326h326q25 0 41.5 -17t16.5 -42t-16.5 -41.5t-41.5 -17.5h-326v-326q0 -25 -17 -41.5t-42 -16.5t-42 16.5t-17 41.5v326h-326q-25 0 -42 17t-17 42t17 42t42 17z" />
    <glyph glyph-name="fenxiang2" unicode="&#xe61e;" 
d="M729 276q-43 0 -78.5 -20t-58.5 -55l-173 100q17 33 18 73q-1 24 -8 46l181 104q22 -25 52.5 -39t66.5 -14q69 2 115 47.5t47 114.5q-1 69 -47 115t-115 48q-69 -2 -115 -48t-47 -115q0 -24 7 -46l-180 -104q-23 25 -53.5 39t-65.5 14q-69 -2 -115 -47.5t-48 -114.5
q2 -69 48 -115t115 -48q56 2 98 34l-1 -1l196 -112q-1 -9 -1 -18q1 -69 47 -114.5t115 -47.5q69 2 115 47.5t47 114.5q-1 69 -47 115t-115 47zM729 731q41 -1 68.5 -28.5t27.5 -69t-27.5 -69t-68.5 -27.5t-68.5 27.5t-27.5 69t27.5 69t68.5 28.5zM275 276q-42 1 -69.5 28.5
t-27.5 69t27.5 69t69 27.5t69 -27.5t27.5 -69t-27.5 -69t-68.5 -28.5zM729 17q-41 1 -68.5 28.5t-27.5 68.5t27.5 68.5t68.5 27.5t68.5 -27.5t27.5 -68.5t-27.5 -68.5t-68.5 -28.5z" />
    <glyph glyph-name="shanchu4" unicode="&#xe622;" 
d="M980 582q-40 90 -108 162q-35 35 -75.5 62t-86.5 47q-94 41 -197 41t-198 -41q-90 -40 -162 -108q-70 -71 -110 -163q-41 -94 -41 -197t41 -198q40 -90 108 -162q35 -34 76 -61.5t86 -46.5q94 -41 197 -41t198 41q90 40 162 108q34 34 61.5 75t46.5 87q41 93 42 197
q1 51 -9.5 101t-30.5 97zM739 126l-225 224l-220 -219l-33 33l220 220l-226 225l34 33l224 -224l221 220l34 -33l-220 -221l224 -224z" />
    <glyph glyph-name="shang" unicode="&#xe624;" 
d="M246 242q-9 -9 -22 -9t-22.5 9.5t-9.5 22t9 22.5l280 280q10 9 22.5 9t22.5 -9l281 -282q10 -10 10 -22.5t-9.5 -22t-22.5 -9.5t-23 9l-259 259z" />
    <glyph glyph-name="xia" unicode="&#xe62d;" 
d="M853 623l-39 45l-302 -256l-302 256l-39 -39l341 -302z" />
    <glyph glyph-name="shoucang2" unicode="&#xe62e;" 
d="M512 149l-242 -127q-10 -5 -19.5 2t-7.5 18l46 269l-196 191q-8 8 -4.5 19.5t15.5 13.5l270 39l121 245q5 10 17 10t17 -10l121 -245l270 -39q12 -2 15.5 -13.5t-4.5 -19.5l-196 -191l46 -269q2 -11 -7.5 -18t-19.5 -2z" />
    <glyph glyph-name="xuanzhong2" unicode="&#xe62f;" 
d="M512 832q-192 -5 -317.5 -130.5t-130.5 -317.5q5 -192 130.5 -317.5t317.5 -130.5q192 5 317.5 130.5t130.5 317.5q-5 192 -130.5 317.5t-317.5 130.5zM749 506l-295 -295q-10 -9 -22 -9t-22 9l-135 141q-9 10 -9 22.5t9.5 22t22 9.5t22.5 -9l115 -115l269 275
q10 9 22.5 9t22 -10t9.5 -25t-9 -25z" />
    <glyph glyph-name="zuo" unicode="&#xe63c;" 
d="M481 -8q13 0 22.5 9.5t9.5 22.5t-9 23l-338 337l338 337q9 10 9 23t-9.5 22.5t-22.5 9.5t-22 -9l-360 -360q-10 -10 -10 -23t10 -23l360 -360q9 -9 22 -9z" />
    <glyph glyph-name="shoucang" unicode="&#xe645;" 
d="M656 734q-83 0 -146 -60q-63 60 -146 60q-102 -2 -169.5 -74.5t-70.5 -181.5q2 -62 22 -107t42 -76q52 -76 130.5 -145.5t137.5 -110.5l3 -2q22 -18 49.5 -18t50.5 17l4 3q58 41 137 110.5t131 145.5q22 31 42 76t22 107q-3 109 -70.5 181.5t-168.5 74.5z" />
    <glyph glyph-name="Group-" unicode="&#xe688;" 
d="M480 672q0 14 9 23t23 9t23 -9t9 -23v-448q0 -14 -9 -23t-23 -9t-23 9t-9 23v448zM800 64v160q0 14 9 23t23 9t23 -9t9 -23v-192q0 -14 -9 -23t-23 -9h-640q-14 0 -23 9t-9 23v192q0 14 9 23t23 9t23 -9t9 -23v-160h576zM648 374q10 10 22.5 10.5t23 -9t11 -22
t-8.5 -23.5l-176 -192q-10 -10 -24 -10t-24 10l-176 192q-9 11 -8.5 23.5t11 22t23 9t22.5 -10.5l152 -167z" />
    <glyph glyph-name="icon--" unicode="&#xe744;" 
d="M294 471q-21 -1 -35.5 -15t-14.5 -36t14.5 -36.5t36 -14.5t36 14.5t14.5 36.5t-14.5 36t-36.5 15zM499 471q-21 -1 -35.5 -15t-14.5 -36t14.5 -36.5t36 -14.5t36 14.5t14.5 36.5t-14.5 36t-36.5 15zM704 471q-22 -1 -36.5 -15t-14.5 -36t14.5 -36.5t36.5 -14.5t36.5 14.5
t14.5 36.5t-14.5 36t-36.5 15zM499 778q-173 -4 -289 -105t-120 -253q0 -86 40.5 -158t112.5 -121v-182l179 110q39 -8 77 -8q174 4 289.5 105.5t120.5 253.5q-5 153 -120.5 254t-289.5 104zM499 113q-45 -1 -87 10l-120 -72l2 118q-70 43 -111 108t-42 143q4 130 105 217
t253 90q152 -3 253.5 -90t105.5 -217q-4 -130 -105.5 -217t-253.5 -90z" />
    <glyph glyph-name="sousuo" unicode="&#xe7ce;" 
d="M878 55l-134 132q45 47 70.5 107.5t25.5 129.5q-4 146 -102.5 243t-247.5 101q-148 -4 -246.5 -101t-102.5 -243q4 -146 102.5 -243.5t246.5 -101.5q58 1 110.5 18t95.5 49l137 -136q10 -9 22.5 -9t22 9t9.5 22.5t-9 22.5zM205 424q3 119 83.5 198.5t201.5 82.5
q122 -3 202.5 -82.5t83.5 -198.5q-3 -120 -83.5 -199.5t-202.5 -82.5q-121 3 -201.5 82.5t-83.5 199.5z" />
  </font>
</defs>
</svg>
